<svg xmlns="http://www.w3.org/2000/svg" width="117.406" height="16" viewBox="0 0 117.406 16"><defs><style>.a{fill:#fff;}.b{fill:#4a96d0;}</style></defs><g transform="translate(-27.5 -30)"><g transform="translate(27.5 30)"><g transform="translate(0)"><path class="a" d="M33.311,30H27.5V45.751h2V40.2h3.649c3.818,0,6.285-2.013,6.285-5.17C39.431,31.926,37.086,30,33.311,30Zm-.145,8.241H29.5V31.934h3.752c1.258,0,4.186.3,4.186,3.154C37.435,37.063,35.838,38.241,33.166,38.241Z" transform="translate(-27.5 -30)"/><path class="a" d="M151.185,65.15c-3.206,0-5.625,2.6-5.625,6.058v.042a5.855,5.855,0,0,0,10.578,3.7l.387-.506-1.509-1.195-.4.519a4.09,4.09,0,0,1-3.226,1.669,3.751,3.751,0,0,1-3.742-3.291H156.6v-.875C156.6,68.229,154.742,65.15,151.185,65.15Zm-3.531,5.1a3.617,3.617,0,0,1,3.489-3.188,3.452,3.452,0,0,1,3.371,3.188Z" transform="translate(-132.797 -61.35)"/><path class="a" d="M257.779,70.693c-1.783-.5-2.688-.889-2.688-1.669,0-.81.927-1.4,2.2-1.4a5.292,5.292,0,0,1,2.931.975l.544.384,1.1-1.644-.53-.361a7.452,7.452,0,0,0-4.019-1.269c-2.434,0-4.2,1.418-4.2,3.414,0,2.279,2.264,2.93,4.092,3.454,1.621.442,2.683.8,2.683,1.771,0,.867-1,1.522-2.328,1.522a5.719,5.719,0,0,1-3.483-1.288l-.518-.406L252.4,75.708l.474.4a7.454,7.454,0,0,0,4.65,1.68c2.518,0,4.344-1.471,4.344-3.538C261.867,71.8,259.4,71.134,257.779,70.693Z" transform="translate(-228.087 -61.849)"/><path class="a" d="M356.968,65.15a6.015,6.015,0,0,0-6.058,6.1v.041a6.038,6.038,0,1,0,6.058-6.141Zm0,10.286a4.072,4.072,0,0,1-4.041-4.206,4,4,0,0,1,4-4.165,4.072,4.072,0,0,1,4.063,4.165v.041A4.007,4.007,0,0,1,356.968,75.436Z" transform="translate(-315.947 -61.35)"/></g><g transform="translate(51.443 1.294)"><path class="b" d="M503.35,41.97h11.009v2.892h-7.827v3.077h6.9v2.892h-6.9v5.6h-3.181V41.97Z" transform="translate(-503.35 -41.97)"/><g transform="translate(13.134 3.387)"><path class="b" d="M624.84,80.468V73.3h3.139v6.176c0,1.488.7,2.251,1.9,2.251s1.962-.764,1.962-2.251V73.3h3.139V84.37h-3.141V82.8a3.916,3.916,0,0,1-3.242,1.776C626.224,84.578,624.84,83.008,624.84,80.468Z" transform="translate(-624.84 -73.3)"/></g><g transform="translate(25.546 3.181)"><path class="b" d="M739.65,77.194v-.042a5.511,5.511,0,0,1,5.474-5.762c3.7,0,5.39,2.87,5.39,6.01,0,.248-.021.537-.041.826h-7.7a2.566,2.566,0,0,0,2.706,2.169,3.63,3.63,0,0,0,2.684-1.135l1.8,1.59a5.847,5.847,0,0,1-10.306-3.655Zm7.807-.93a2.374,2.374,0,0,0-2.334-2.355,2.467,2.467,0,0,0-2.4,2.355Z" transform="translate(-739.65 -71.39)"/></g><g transform="translate(38.742 3.177)"><path class="b" d="M861.71,71.565h3.139V73.8a3.419,3.419,0,0,1,3.532-2.437v3.283h-.165c-2.085,0-3.366,1.259-3.366,3.9v4.09H861.71Z" transform="translate(-861.71 -71.355)"/></g><g transform="translate(46.569 0.558)"><path class="b" d="M935.432,57.89V52.645H934.11V49.959h1.322V47.13h3.139v2.829h2.6v2.685h-2.6v4.73c0,.723.31,1.075,1.012,1.075a3.2,3.2,0,0,0,1.549-.392v2.52a4.63,4.63,0,0,1-2.479.64C936.733,61.215,935.432,60.452,935.432,57.89Z" transform="translate(-934.11 -47.13)"/></g><g transform="translate(55.098 3.181)"><path class="b" d="M1013.01,77.194v-.042a5.511,5.511,0,0,1,5.474-5.762c3.7,0,5.391,2.87,5.391,6.01,0,.248-.021.537-.042.826h-7.7a2.566,2.566,0,0,0,2.706,2.169,3.63,3.63,0,0,0,2.684-1.135l1.8,1.59a5.847,5.847,0,0,1-10.306-3.655Zm7.806-.93a2.374,2.374,0,0,0-2.334-2.355,2.467,2.467,0,0,0-2.4,2.355Z" transform="translate(-1013.01 -71.39)"/></g></g></g></g></svg>